<?xml version="1.0" standalone="no"?>
<!DOCTYPE svg PUBLIC "-//W3C//DTD SVG 20010904//EN"
 "http://www.w3.org/TR/2001/REC-SVG-20010904/DTD/svg10.dtd">
<svg version="1.0" xmlns="http://www.w3.org/2000/svg"
 width="300.000000pt" height="302.000000pt" viewBox="0 0 300.000000 302.000000"
 preserveAspectRatio="xMidYMid meet">
<metadata>
Created by potrace 1.10, written by Peter Selinger 2001-2011
</metadata>
<g transform="translate(0.000000,302.000000) scale(0.100000,-0.100000)"
fill="#000000" stroke="none">
<path d="M1199 2427 c-13 -10 -97 -174 -104 -202 -1 -5 -5 -17 -8 -25 -3 -8
-16 -49 -29 -90 -20 -67 -23 -95 -23 -260 0 -172 2 -192 28 -285 41 -147 132
-325 167 -325 19 0 40 13 34 21 -3 5 -1 9 4 9 13 0 65 92 83 145 7 22 17 45
22 52 5 7 13 29 18 50 5 21 11 45 14 53 2 8 9 42 16 75 6 33 15 64 19 68 4 5
18 -13 30 -40 36 -76 128 -202 195 -268 77 -76 190 -135 272 -142 52 -4 59 -2
71 17 11 17 10 31 -2 80 -28 107 -70 179 -149 255 -97 92 -123 115 -133 115
-5 0 -22 11 -38 25 -16 14 -36 25 -44 25 -9 0 -27 10 -40 23 -14 12 -22 16
-17 8 6 -11 -17 0 -54 26 -2 1 28 17 65 36 38 18 88 45 111 60 42 27 185 145
191 158 2 4 11 16 20 27 25 28 81 153 88 197 2 11 6 30 9 42 9 39 -31 61 -100
53 -11 -1 -24 -5 -30 -9 -5 -4 -38 -18 -72 -30 -71 -27 -158 -99 -230 -195
-26 -33 -50 -63 -54 -66 -6 -5 -52 -98 -54 -110 0 -3 -7 -16 -14 -29 -17 -30
-26 -17 -36 54 -16 114 -89 308 -143 383 -26 34 -55 41 -83 19z m96 -89 c42
-78 88 -208 106 -299 19 -98 17 -309 -4 -409 -22 -100 -62 -206 -119 -309
l-41 -74 -18 24 c-39 50 -110 211 -135 306 -49 186 -43 412 17 593 23 72 92
215 117 243 20 22 28 15 77 -75z m693 0 c-20 -114 -86 -220 -193 -308 -101
-84 -208 -144 -330 -185 -16 -5 -5 -13 50 -34 93 -36 195 -97 278 -166 72 -60
114 -111 153 -187 24 -48 57 -168 49 -177 -11 -10 -126 19 -181 46 -124 60
-279 246 -343 412 -17 44 -31 89 -31 100 0 29 53 154 98 229 79 131 173 226
276 279 46 23 163 55 177 47 4 -2 2 -27 -3 -56z"/>
<path d="M867 1142 c-27 -30 -25 -169 2 -200 l18 -22 27 21 c14 11 26 17 26
12 0 -4 5 -1 10 7 8 13 10 13 10 -2 0 -25 47 -34 79 -15 24 14 28 14 51 -5 28
-23 90 -17 124 11 14 12 19 11 36 -4 31 -28 126 -17 157 19 23 27 43 28 43 2
0 -19 44 -39 69 -31 11 3 21 11 21 16 0 6 10 3 22 -5 28 -20 43 -20 61 -1 13
13 16 13 27 0 16 -19 37 -19 74 0 24 13 32 13 60 1 43 -19 252 -19 282 1 17
10 28 11 50 2 76 -29 91 -15 72 65 -7 31 -16 56 -20 56 -4 0 -5 7 -2 15 4 8 1
15 -5 15 -6 0 -11 8 -11 18 0 10 -12 25 -26 32 -38 21 -72 -2 -93 -62 -22 -66
-44 -90 -73 -79 -13 4 -24 14 -25 22 -1 8 -5 35 -8 61 -10 80 -65 89 -87 16
l-12 -40 -14 35 c-8 22 -24 40 -42 47 -25 11 -33 9 -56 -9 -22 -17 -29 -19
-38 -7 -17 21 -42 26 -62 11 -16 -11 -23 -11 -46 1 -34 18 -43 18 -62 -1 -13
-13 -16 -13 -31 1 -13 13 -21 14 -38 6 -22 -10 -21 -11 4 -11 23 -1 28 -7 38
-45 6 -25 11 -55 12 -68 0 -23 0 -23 9 -2 5 12 12 42 15 68 6 39 11 46 30 46
19 0 24 -7 30 -46 13 -87 20 -91 34 -20 12 60 15 66 38 66 20 0 24 -4 18 -17
-17 -43 -45 -140 -45 -155 0 -12 -8 -18 -24 -18 -21 0 -25 7 -38 73 l-14 72
-13 -72 c-12 -67 -15 -73 -37 -73 -15 0 -24 6 -24 16 0 9 -10 49 -21 89 -21
70 -23 74 -63 89 -49 19 -117 21 -134 4 -8 -8 -15 -8 -25 1 -10 8 -22 8 -40 2
-33 -13 -40 -26 -39 -70 1 -20 -2 -42 -7 -49 -5 -8 -9 8 -10 39 -2 64 -22 92
-56 79 -12 -5 -39 -5 -61 0 -30 7 -41 6 -47 -6 -5 -8 -12 -12 -18 -9 -5 4 -9
1 -9 -6 0 -7 -6 -5 -14 6 -18 24 -41 27 -59 7z m47 -44 l-5 -43 39 43 c29 30
48 42 68 42 l28 0 -42 -43 -42 -42 40 -45 c21 -25 39 -48 40 -52 0 -5 -12 -8
-28 -8 -21 0 -33 9 -52 40 -14 22 -28 40 -31 40 -12 0 -19 -31 -13 -56 5 -21
3 -24 -20 -24 l-26 0 0 95 c0 95 0 95 25 95 24 0 25 -2 19 -42z m198 -35 c3
-76 4 -78 28 -78 24 0 25 2 28 78 3 75 3 77 28 77 l26 0 -4 -81 c-4 -92 -16
-109 -78 -109 -62 0 -74 17 -78 109 l-4 81 26 0 c25 0 25 -2 28 -77z m278 52
c31 -28 28 -108 -5 -140 -20 -21 -34 -25 -80 -25 l-55 0 0 96 0 96 60 -4 c39
-3 66 -11 80 -23z m416 -72 l33 -93 -23 0 c-15 0 -26 7 -29 20 -4 15 -14 20
-40 20 -26 0 -36 -5 -40 -20 -3 -12 -14 -20 -27 -20 -14 0 -20 5 -18 13 3 6
18 49 34 95 26 74 31 82 53 80 20 -3 28 -17 57 -95z m94 20 l0 -78 47 0 c37 0
48 -4 51 -17 3 -16 -5 -18 -67 -18 l-71 0 0 95 c0 88 1 95 20 95 18 0 20 -7
20 -77z m220 73 c0 -2 15 -44 34 -95 l34 -91 -23 0 c-15 0 -26 8 -30 20 -5 15
-15 20 -40 20 -25 0 -35 -5 -40 -20 -6 -18 -45 -30 -45 -14 0 4 14 47 32 95
28 77 35 89 55 89 13 0 23 -2 23 -4z m-1080 -86 c0 -22 -1 -40 -3 -40 -1 0
-10 8 -18 18 -11 13 -13 25 -8 40 13 35 29 25 29 -18z"/>
<path d="M1292 1043 l3 -58 30 4 c38 4 46 16 43 66 -3 39 -4 40 -41 43 l-38 3
3 -58z"/>
<path d="M1740 1080 c0 -8 -3 -25 -6 -37 -5 -19 -2 -23 16 -23 18 0 20 4 14
23 -3 12 -10 29 -15 37 -7 13 -8 13 -9 0z"/>
<path d="M2083 1055 c-11 -33 -10 -35 12 -35 23 0 23 2 13 33 -6 17 -12 33
-13 34 -1 2 -6 -13 -12 -32z"/>
</g>
</svg>
