<?xml version="1.0" standalone="no"?>
<!DOCTYPE svg PUBLIC "-//W3C//DTD SVG 20010904//EN"
 "http://www.w3.org/TR/2001/REC-SVG-20010904/DTD/svg10.dtd">
<svg version="1.0" xmlns="http://www.w3.org/2000/svg"
 width="1350.000000pt" height="1359.000000pt" viewBox="0 0 1350.000000 1359.000000"
 preserveAspectRatio="xMidYMid meet">
<metadata>
Created by potrace 1.10, written by Peter Selinger 2001-2011
</metadata>
<g transform="translate(0.000000,1359.000000) scale(0.100000,-0.100000)"
fill="#72932a" stroke="none">
<path d="M5505 10954 c-37 -14 -95 -59 -95 -75 0 -4 -15 -22 -34 -41 -19 -19
-38 -48 -42 -64 -4 -16 -16 -35 -26 -42 -10 -7 -18 -20 -18 -29 0 -9 -16 -35
-35 -59 -19 -23 -35 -49 -35 -56 0 -8 -14 -36 -31 -62 -16 -27 -28 -55 -25
-63 9 -22 -3 -36 -19 -23 -12 10 -13 5 -8 -24 5 -31 3 -36 -14 -36 -21 0 -40
-38 -62 -125 -6 -22 -22 -56 -36 -75 -14 -19 -25 -42 -25 -52 0 -26 -30 -111
-46 -129 -8 -8 -14 -27 -14 -42 0 -16 -8 -30 -21 -37 -12 -7 -18 -18 -15 -26
3 -8 -1 -32 -10 -52 -8 -20 -20 -61 -24 -91 -5 -30 -16 -61 -25 -71 -8 -9 -15
-24 -15 -34 0 -16 -11 -46 -57 -156 -10 -27 -12 -46 -5 -78 6 -25 6 -44 1 -48
-5 -3 -9 7 -9 21 0 16 -4 24 -11 19 -7 -4 -10 -36 -7 -89 2 -51 -1 -87 -8 -96
-12 -14 -19 -60 -29 -170 -3 -30 -12 -93 -21 -140 -42 -223 -55 -904 -21
-1094 9 -49 17 -107 17 -128 0 -21 9 -62 19 -92 12 -34 17 -68 14 -92 -3 -21
0 -65 7 -98 7 -33 16 -82 21 -110 5 -27 13 -51 19 -53 5 -2 10 -28 10 -57 0
-30 5 -66 12 -82 6 -15 14 -68 17 -118 5 -75 9 -90 22 -87 23 3 34 -14 58 -98
13 -41 27 -85 33 -96 5 -12 7 -31 3 -43 -5 -16 2 -31 24 -57 31 -35 40 -67 21
-79 -5 -3 -10 -18 -10 -33 1 -25 2 -26 15 -8 17 23 37 12 30 -17 -4 -16 2 -30
19 -47 19 -17 26 -34 26 -60 0 -25 10 -50 30 -78 17 -23 30 -48 30 -56 0 -7 9
-16 20 -19 11 -3 20 -12 20 -21 0 -9 14 -40 30 -69 17 -30 30 -61 30 -70 0 -9
14 -43 32 -74 17 -32 40 -75 51 -95 10 -20 25 -42 33 -49 8 -6 14 -17 14 -24
0 -6 9 -20 20 -30 11 -10 20 -22 20 -28 0 -17 63 -107 76 -107 6 0 15 -11 18
-25 4 -16 13 -25 26 -25 11 0 29 -6 40 -12 14 -9 23 -10 28 -3 17 23 78 59 99
57 13 -1 23 3 23 8 0 6 -4 10 -10 10 -20 0 -10 40 14 55 13 9 27 26 30 38 3
12 15 37 26 55 17 28 23 32 36 21 12 -10 17 -10 27 0 9 10 8 15 -5 25 -25 18
-23 30 12 69 17 19 30 41 30 49 0 18 29 58 30 41 0 -7 5 -13 11 -13 7 0 8 11
4 30 -8 38 1 55 22 38 14 -11 15 -9 8 20 -5 27 -2 41 19 72 14 22 26 45 26 52
0 7 14 33 31 58 17 25 33 58 36 73 3 16 16 33 29 39 26 12 37 44 24 68 -6 11
-3 27 11 49 10 17 19 37 19 45 0 17 28 74 41 81 5 4 9 18 9 32 0 14 16 54 35
90 38 71 41 84 23 112 -6 10 -8 27 -4 37 7 18 8 18 22 0 13 -18 14 -14 14 42
0 34 4 62 8 62 5 0 14 30 21 68 8 37 18 73 24 80 5 7 9 27 9 45 -1 18 7 52 17
77 22 52 58 240 67 350 3 41 14 102 24 136 15 49 16 68 7 101 -13 50 -5 73 26
73 41 0 88 -86 57 -105 -15 -9 -1 -27 16 -21 10 4 14 -3 14 -22 0 -15 14 -47
30 -71 17 -24 30 -52 30 -61 0 -10 7 -23 15 -30 27 -22 59 -102 48 -119 -6 -9
-7 -25 -3 -36 8 -19 8 -19 17 5 l10 24 12 -23 c8 -13 10 -37 6 -60 -6 -39 12
-70 34 -57 12 8 31 -25 31 -52 0 -10 11 -29 25 -42 14 -13 25 -29 25 -36 0 -7
12 -27 27 -44 27 -33 84 -122 111 -175 9 -16 24 -36 34 -43 10 -8 18 -26 18
-43 0 -21 13 -43 51 -82 28 -28 65 -71 82 -94 18 -23 40 -44 49 -46 10 -3 20
-21 25 -48 6 -30 14 -45 28 -49 26 -7 125 -112 125 -133 0 -22 19 -31 26 -13
7 17 24 22 24 7 0 -6 12 -22 26 -38 14 -15 28 -40 31 -55 4 -20 14 -30 38 -38
37 -12 68 -42 63 -62 -4 -22 64 -84 108 -96 22 -7 51 -23 64 -37 13 -14 32
-25 42 -25 10 0 20 -10 24 -25 4 -15 13 -25 24 -25 31 0 50 -11 50 -30 0 -12
6 -16 23 -13 15 3 32 -6 57 -31 19 -19 44 -36 54 -36 11 0 33 -11 50 -24 17
-12 49 -29 71 -37 22 -7 56 -24 75 -36 19 -13 44 -23 56 -23 12 0 27 -7 35
-16 9 -11 22 -14 44 -10 23 5 39 1 58 -14 22 -18 92 -38 152 -44 11 -2 27 -5
35 -8 51 -18 200 -45 228 -41 18 3 38 0 45 -6 9 -7 24 -8 47 -1 19 5 36 8 38
5 7 -6 32 15 32 26 0 5 -11 9 -24 9 -13 0 -39 6 -57 14 -19 8 -61 17 -94 21
-102 12 -276 52 -389 90 -198 66 -336 131 -476 224 -34 23 -64 41 -66 41 -7 0
-67 44 -153 115 -108 87 -396 379 -435 440 -10 17 -42 56 -70 89 -28 32 -71
87 -96 122 -132 188 -210 304 -210 310 0 4 -18 36 -40 71 -36 57 -171 317
-199 383 -6 14 -15 32 -21 40 -11 17 -40 85 -65 153 -10 26 -22 50 -26 53 -5
3 -9 16 -9 29 0 13 -7 39 -15 57 -8 18 -32 83 -54 143 -53 145 -53 145 39 385
12 30 32 87 46 125 13 39 35 93 48 120 13 28 31 70 41 95 9 25 23 56 31 70 7
14 29 57 48 95 52 103 126 238 141 255 7 8 29 44 49 80 39 68 54 90 139 208
92 129 180 247 192 257 6 6 30 35 53 65 135 178 510 512 667 596 11 5 58 31
105 56 47 26 115 58 151 71 36 14 75 30 85 36 48 27 274 88 374 101 36 5 76
13 90 18 41 15 177 25 184 13 7 -11 -4 -85 -30 -198 -8 -34 -14 -74 -14 -89 0
-14 -7 -47 -15 -73 -8 -25 -22 -73 -31 -106 -40 -150 -126 -349 -213 -497 -58
-97 -81 -132 -135 -201 -34 -43 -77 -100 -97 -125 -56 -72 -209 -217 -420
-396 -106 -90 -395 -297 -479 -343 -19 -10 -53 -30 -75 -44 -118 -76 -425
-228 -580 -288 -60 -24 -123 -48 -140 -55 -16 -7 -78 -28 -137 -47 -60 -18
-108 -38 -108 -44 0 -13 78 -45 110 -45 14 0 34 -7 44 -15 11 -8 28 -15 39
-15 10 0 52 -13 93 -30 41 -16 107 -43 147 -59 39 -16 108 -47 152 -69 44 -22
96 -47 115 -55 36 -17 137 -73 155 -87 6 -4 21 -11 34 -15 13 -4 45 -23 71
-41 26 -19 51 -34 55 -34 11 0 105 -60 130 -83 11 -10 40 -30 65 -44 25 -14
59 -38 77 -52 17 -14 53 -42 80 -61 26 -19 54 -41 61 -47 7 -7 17 -13 20 -13
4 0 18 -10 32 -23 14 -12 79 -69 145 -127 203 -178 377 -364 450 -480 15 -25
40 -61 55 -80 15 -19 55 -91 90 -160 64 -127 75 -150 105 -230 9 -25 23 -60
31 -78 8 -18 14 -41 14 -50 0 -10 7 -27 15 -38 8 -10 15 -33 15 -50 0 -17 6
-49 14 -70 7 -22 19 -73 26 -114 30 -186 41 -235 53 -242 24 -15 36 18 42 112
5 72 4 91 -5 77 -16 -26 -29 -12 -28 31 2 88 -26 247 -56 317 -8 17 -20 46
-28 65 -8 19 -21 47 -28 62 -7 14 -10 38 -6 51 4 17 0 29 -10 38 -9 8 -25 32
-36 54 -11 22 -27 54 -36 70 -67 118 -85 145 -93 145 -5 0 -9 14 -9 31 0 16
-11 47 -25 67 -14 20 -25 42 -25 49 0 7 -15 19 -34 27 -22 9 -37 24 -44 45 -6
17 -18 31 -26 31 -9 0 -16 8 -16 18 0 18 -95 122 -111 122 -5 0 -12 7 -15 15
-3 8 -14 17 -25 20 -10 4 -19 15 -19 26 0 10 -5 19 -10 19 -6 0 -16 11 -22 25
-6 14 -23 28 -37 32 -27 6 -111 84 -111 103 0 5 -7 10 -16 10 -19 0 -114 97
-114 116 0 8 -8 14 -19 14 -10 0 -24 7 -31 15 -7 8 -20 15 -30 15 -12 0 -17 8
-17 25 0 35 -7 39 -51 37 -31 -2 -43 4 -77 37 -22 22 -45 40 -52 41 -7 0 -26
14 -43 30 -17 16 -37 30 -44 30 -8 0 -19 7 -26 15 -7 8 -21 15 -31 15 -10 0
-23 9 -29 21 -7 11 -37 32 -68 46 -31 14 -73 40 -94 59 -22 20 -49 34 -63 34
-38 0 -84 22 -133 64 -24 20 -50 36 -58 36 -8 0 -17 7 -20 15 -4 8 -18 15 -33
15 -15 0 -31 8 -38 18 -8 13 -20 18 -40 15 -39 -5 -61 10 -44 31 8 10 9 16 3
16 -6 0 -14 -4 -17 -10 -11 -18 -63 -11 -78 10 -7 11 -30 26 -50 35 -19 8 -38
19 -42 25 -3 5 -17 10 -29 10 -15 0 -26 7 -29 20 -6 23 49 60 89 60 13 0 48
11 77 25 41 20 61 24 91 19 36 -6 38 -5 33 15 -7 26 8 38 67 51 27 6 60 20 74
30 13 11 30 20 37 20 7 0 25 10 40 22 19 15 41 22 69 21 23 0 33 2 24 4 -10 3
-18 10 -18 16 1 14 128 77 157 77 11 0 25 10 32 23 15 28 61 57 90 57 13 0 26
10 32 24 7 14 38 37 78 57 36 19 89 53 117 76 57 47 70 51 90 26 13 -17 13
-17 14 0 0 9 -4 17 -10 17 -19 0 -10 32 10 37 11 3 20 12 20 19 0 8 7 14 15
14 8 0 35 20 61 45 25 25 54 45 63 45 10 0 23 14 31 35 15 39 30 46 30 15 0
-31 20 -24 27 10 7 37 55 80 89 80 21 0 24 5 24 35 0 33 5 39 60 73 32 20 59
43 60 50 0 8 13 26 28 40 15 15 40 48 55 75 18 31 35 47 47 47 12 0 20 7 20
16 0 9 20 39 44 67 24 29 51 68 60 87 9 19 34 60 56 90 21 30 39 62 40 70 0 8
7 28 15 44 8 15 15 35 15 43 0 8 12 29 26 46 38 45 70 122 84 202 7 39 17 79
23 90 29 55 66 245 68 348 1 43 6 80 11 83 4 3 8 11 8 19 0 19 -52 75 -69 75
-8 0 -23 7 -33 16 -24 22 -133 27 -170 8 -15 -8 -39 -14 -54 -14 -78 0 -261
-52 -271 -76 -2 -7 -29 -16 -59 -20 -30 -3 -57 -10 -60 -15 -3 -5 -17 -9 -32
-9 -25 0 -124 -46 -237 -110 -27 -16 -60 -29 -71 -29 -12 -1 -27 -8 -34 -16
-7 -8 -36 -28 -65 -45 -29 -17 -58 -37 -65 -45 -7 -8 -19 -15 -27 -15 -20 0
-70 -43 -66 -57 2 -6 -20 -27 -49 -47 -74 -50 -83 -58 -97 -84 -8 -15 -19 -22
-30 -19 -10 2 -26 -2 -36 -9 -10 -8 -13 -14 -7 -14 26 0 7 -26 -109 -143 -67
-67 -125 -132 -130 -145 -5 -13 -15 -22 -22 -20 -14 3 -87 -73 -87 -90 0 -7
-11 -19 -24 -27 -13 -9 -34 -38 -45 -65 -12 -28 -32 -57 -45 -65 -13 -9 -29
-29 -36 -45 -6 -16 -18 -31 -26 -34 -8 -3 -14 -14 -14 -24 0 -11 -17 -40 -37
-65 -31 -38 -39 -43 -48 -31 -12 17 -41 10 -49 -13 -9 -22 3 -35 25 -28 31 10
24 -37 -11 -70 -16 -16 -30 -35 -30 -42 0 -8 -7 -16 -15 -19 -8 -4 -15 -14
-15 -23 0 -10 -11 -28 -24 -40 -13 -12 -26 -39 -30 -61 -3 -22 -21 -65 -40
-97 -33 -56 -86 -166 -86 -178 0 -3 -11 -23 -24 -44 -13 -21 -30 -58 -37 -82
-7 -24 -18 -51 -25 -59 -6 -8 -14 -31 -17 -50 -19 -117 -33 -136 -66 -94 -25
32 -26 55 -5 95 14 28 14 37 -2 107 -9 42 -20 102 -25 132 -9 57 -34 202 -49
280 -4 25 -14 77 -20 115 -7 39 -18 84 -25 100 -7 17 -19 66 -25 110 -7 44
-19 91 -28 105 -9 14 -17 49 -18 79 -1 39 -6 56 -19 63 -14 8 -16 18 -10 54 6
40 4 44 -14 44 -16 0 -21 9 -26 48 -4 26 -16 62 -26 80 -10 18 -19 39 -19 46
0 8 -7 19 -15 26 -8 7 -15 28 -15 47 0 21 -6 36 -15 39 -8 4 -15 19 -15 35 0
17 -7 32 -18 38 -19 10 -42 71 -42 110 0 31 -38 101 -54 101 -15 0 -26 21 -26
51 0 12 -10 23 -25 29 -15 6 -25 17 -25 30 0 21 -86 196 -101 206 -5 3 -9 14
-9 26 0 11 -8 22 -20 25 -13 4 -20 14 -20 30 0 32 -17 63 -35 63 -8 0 -15 7
-15 15 0 8 -6 12 -14 9 -9 -4 -20 5 -30 24 -9 17 -30 36 -48 43 -18 7 -35 14
-38 15 -3 1 -23 -4 -45 -12z m109 -98 c13 -17 32 -45 43 -63 60 -103 120 -210
126 -223 4 -8 23 -42 41 -75 40 -71 74 -137 110 -220 15 -33 34 -73 43 -90 17
-33 59 -141 74 -192 5 -18 14 -35 19 -38 6 -4 10 -16 10 -29 0 -12 4 -26 9
-31 12 -12 51 -124 51 -145 0 -8 7 -28 15 -44 8 -15 15 -34 15 -42 0 -7 11
-47 25 -89 37 -115 102 -408 125 -571 6 -38 14 -96 20 -129 14 -92 30 -410 30
-610 0 -197 -14 -427 -35 -575 -33 -233 -48 -328 -60 -375 -8 -27 -28 -111
-46 -185 -18 -74 -45 -171 -60 -215 -15 -44 -35 -107 -45 -140 -15 -56 -90
-250 -119 -305 -7 -14 -15 -38 -19 -55 -4 -16 -48 -111 -98 -210 -50 -99 -102
-201 -114 -227 -13 -27 -28 -48 -33 -48 -5 0 -14 -12 -20 -27 -13 -32 -48 -93
-103 -177 -21 -33 -38 -65 -38 -72 0 -15 -39 -64 -51 -64 -5 0 -11 11 -15 25
-7 30 -30 75 -67 132 -15 24 -27 45 -27 48 0 3 -12 24 -27 48 -15 23 -40 67
-54 98 -15 30 -34 61 -43 68 -8 7 -30 43 -47 80 -17 36 -46 98 -64 136 -18 39
-36 77 -39 85 -3 8 -10 22 -16 30 -8 13 -21 43 -59 135 -5 11 -23 53 -40 94
-17 40 -31 78 -31 83 0 6 -6 24 -14 41 -19 44 -37 95 -46 137 -4 19 -17 59
-29 89 -20 54 -46 151 -75 286 -9 39 -22 93 -30 120 -8 28 -20 91 -25 140 -6
50 -17 131 -26 180 -8 50 -17 113 -20 140 -40 451 -39 426 -26 643 20 313 28
398 46 507 9 55 20 127 24 160 20 143 111 514 147 603 8 18 14 42 14 53 0 19
42 133 75 204 8 17 24 59 35 94 12 35 41 105 65 155 24 50 57 120 74 156 17
36 35 72 40 80 5 8 12 22 15 30 4 8 17 33 29 55 13 22 38 69 57 105 19 36 40
71 47 78 7 7 13 17 13 21 0 18 93 147 117 163 33 21 75 8 107 -36z"/>
<path d="M6830 8291 c0 -15 16 -22 34 -15 25 9 19 24 -9 24 -14 0 -25 -4 -25
-9z"/>
<path d="M4054 5174 c-15 -10 -28 -12 -45 -6 -30 11 -89 -4 -89 -23 0 -7 -8
-16 -18 -19 -9 -3 -24 -20 -32 -38 -13 -28 -15 -92 -13 -402 2 -266 6 -378 14
-399 20 -48 95 -117 127 -117 24 1 25 2 10 14 -22 16 -13 26 23 26 31 0 79 19
79 31 0 4 16 16 35 28 26 15 35 27 35 46 0 14 7 28 15 31 17 7 21 59 5 69 -15
10 -12 23 9 34 16 9 25 2 60 -45 22 -30 44 -67 47 -82 9 -36 18 -47 69 -76 58
-35 163 -49 233 -33 102 23 51 56 -93 59 l-100 3 -16 35 c-10 19 -29 46 -43
59 -14 14 -26 28 -26 32 0 9 -125 195 -146 218 -11 12 -19 8 -54 -27 l-42 -42
6 -140 6 -141 -96 3 -96 3 1 414 c0 228 3 417 6 420 4 3 44 6 91 6 72 0 85 -3
90 -18 3 -10 2 -79 -2 -155 -11 -191 -5 -210 44 -140 17 23 54 68 83 98 28 30
83 88 121 127 65 69 102 91 131 80 16 -6 144 16 154 27 17 17 -23 28 -120 31
-104 3 -107 3 -147 -26 -24 -17 -40 -37 -40 -49 0 -12 -7 -20 -18 -20 -9 0
-23 -9 -30 -21 -8 -12 -19 -18 -28 -15 -8 3 -26 -1 -39 -10 -31 -20 -49 -9
-41 26 3 18 0 33 -9 40 -8 7 -15 19 -15 26 0 8 -11 19 -24 24 -13 5 -27 18
-31 29 -7 24 -13 25 -41 5z m136 -786 c0 -16 -3 -19 -11 -11 -6 6 -8 16 -5 22
11 17 16 13 16 -11z"/>
<path d="M5315 5168 c-22 -13 -19 -33 8 -51 19 -12 33 -13 71 -5 41 8 50 7 67
-8 15 -14 19 -26 15 -49 -3 -16 -5 -146 -5 -288 0 -266 -3 -292 -44 -374 -58
-117 -258 -173 -437 -124 -128 36 -177 88 -200 214 -13 63 -14 617 -2 629 6 6
26 5 52 -2 34 -9 49 -8 81 4 27 11 40 12 45 4 4 -6 6 -151 5 -322 l-2 -311 31
-32 c50 -53 126 -66 197 -34 75 35 77 40 77 324 -1 331 -3 387 -17 387 -29 -1
-48 -29 -52 -76 -2 -27 -4 -51 -5 -54 -1 -3 -1 -114 0 -247 1 -234 1 -243 -18
-243 -11 0 -22 -9 -25 -20 -5 -21 -41 -28 -52 -10 -4 6 -10 8 -15 5 -5 -3 -19
4 -30 15 -17 17 -20 32 -19 78 0 31 1 138 0 236 0 99 2 183 5 187 8 14 -18
104 -38 125 -44 49 -165 52 -247 8 -24 -13 -49 -24 -56 -24 -7 0 -23 -10 -37
-22 -13 -13 -44 -40 -69 -62 -39 -35 -205 -186 -266 -243 -12 -12 -23 -26 -23
-30 0 -4 19 -28 43 -53 24 -25 83 -98 132 -163 50 -65 107 -140 127 -167 21
-27 46 -51 57 -55 11 -3 21 -16 23 -27 2 -12 8 -23 14 -25 16 -5 25 24 14 45
-5 9 -11 29 -14 43 -3 14 -18 40 -33 57 -16 17 -46 54 -68 82 -22 28 -47 60
-56 71 -9 11 -20 36 -24 56 -8 44 -48 86 -65 69 -17 -17 -26 5 -25 61 0 47 1
48 35 53 23 3 31 8 23 13 -7 5 -13 12 -13 18 0 5 6 9 13 9 13 0 103 91 124
125 12 20 12 20 28 1 14 -19 15 -18 15 17 0 30 4 37 19 37 11 0 23 -5 27 -12
4 -6 7 -143 6 -304 0 -244 2 -293 14 -298 8 -3 14 -12 14 -20 0 -20 109 -129
150 -149 19 -9 29 -17 23 -17 -7 0 -13 -5 -13 -10 0 -7 18 -8 48 -4 37 5 52 2
65 -10 33 -34 271 -14 311 27 10 9 23 17 29 17 7 0 20 8 29 18 9 9 34 30 57
45 27 19 41 36 41 50 0 13 6 31 14 42 7 11 16 33 20 48 8 33 26 27 26 -9 0
-15 -6 -24 -15 -24 -17 0 -20 -26 -5 -35 6 -4 17 -1 25 5 13 11 15 7 15 -23 0
-25 6 -39 23 -50 22 -15 22 -15 2 -30 -20 -15 -19 -16 9 -27 16 -6 34 -18 40
-26 10 -13 43 -15 205 -15 204 1 249 5 293 27 15 8 38 14 52 14 14 0 28 5 31
10 4 6 31 28 60 50 44 33 60 54 94 122 37 77 39 87 34 146 -5 54 -4 62 10 56
20 -7 57 -69 57 -95 0 -11 7 -22 15 -25 16 -6 55 -120 55 -160 0 -13 9 -32 20
-41 11 -10 20 -25 20 -35 0 -10 12 -25 28 -35 15 -10 33 -25 40 -35 13 -18 60
-16 115 4 20 8 31 7 41 -2 12 -9 18 -4 35 29 12 22 27 44 34 48 19 11 35 58
46 132 6 35 13 66 15 69 12 11 23 -45 15 -73 -12 -42 -13 -41 26 -84 19 -21
33 -45 30 -53 -9 -23 46 -54 116 -67 55 -9 73 -8 112 5 47 16 87 53 87 81 0
26 45 148 58 156 6 4 12 19 12 33 0 13 6 27 14 30 9 4 16 32 21 91 6 68 11 90
27 102 23 19 37 77 38 154 0 42 6 67 19 86 11 15 22 53 26 91 6 60 5 67 -18
88 -35 33 -177 55 -218 35 -16 -8 -29 -18 -29 -23 0 -5 -9 -12 -20 -15 -11 -3
-23 -18 -26 -33 -4 -15 -10 -31 -13 -37 -3 -5 -6 -19 -6 -30 0 -23 -4 -25 -45
-25 -37 0 -49 23 -26 49 21 24 20 34 -3 26 -14 -4 -21 0 -26 15 -22 69 -202
110 -265 59 -14 -11 -33 -22 -42 -25 -10 -4 -20 -21 -24 -43 -4 -20 -10 -41
-15 -47 -5 -6 -11 -35 -13 -65 -3 -30 -9 -67 -14 -84 -8 -29 -9 -29 -16 -7 -4
12 -5 30 -2 40 9 27 -12 136 -29 148 -8 6 -15 21 -15 33 0 14 -6 21 -19 21
-10 0 -25 9 -32 21 -27 39 -133 50 -194 19 -22 -11 -46 -20 -53 -20 -12 0 -12
-3 -2 -15 11 -13 9 -20 -9 -39 -19 -20 -21 -28 -12 -44 14 -26 14 -32 1 -32
-5 0 -10 7 -10 15 0 8 -8 15 -19 15 -10 0 -26 11 -35 25 -9 14 -26 25 -37 25
-11 0 -30 11 -43 25 -32 35 -57 42 -196 54 -223 20 -374 10 -387 -27 -4 -9
-20 -27 -35 -40 -15 -13 -28 -32 -28 -43 0 -11 -7 -19 -16 -19 -13 0 -14 3 -5
14 9 10 9 20 2 33 -12 22 -59 66 -86 80 -24 13 -118 13 -140 1z m545 -64 c269
-3 306 -12 392 -101 73 -75 99 -149 100 -287 1 -137 -18 -212 -71 -292 -90
-135 -119 -145 -419 -149 -140 -2 -232 1 -239 7 -9 7 -10 15 -2 30 7 12 10
152 8 402 -1 211 2 389 6 396 5 7 15 9 29 4 11 -4 100 -9 196 -10z m610 6 c24
-7 43 -7 61 1 21 8 34 7 57 -5 26 -14 30 -21 35 -73 3 -32 15 -101 27 -153 31
-134 38 -174 50 -264 10 -84 24 -112 40 -86 5 8 10 30 10 47 0 18 4 52 9 75 6
24 14 72 20 108 5 36 19 109 30 163 12 55 21 114 21 131 0 49 28 70 82 60 24
-4 62 -7 85 -5 37 2 43 0 47 -21 2 -12 9 -50 16 -83 6 -33 15 -78 21 -100 18
-77 49 -258 49 -292 0 -41 15 -73 34 -73 17 0 26 22 26 63 0 31 33 207 44 237
12 30 46 204 46 232 0 32 6 34 122 42 69 5 79 4 88 -13 7 -15 4 -30 -17 -66
-14 -26 -32 -72 -40 -101 -13 -52 -28 -107 -57 -216 -8 -29 -20 -73 -26 -98
-6 -25 -15 -52 -19 -60 -5 -9 -12 -31 -16 -50 -4 -19 -11 -40 -16 -46 -10 -12
-31 -102 -34 -145 -1 -14 -5 -31 -9 -37 -8 -13 -173 -17 -192 -4 -6 4 -11 23
-11 42 0 48 -18 136 -30 152 -6 7 -13 40 -17 73 -4 33 -11 85 -16 115 -5 30
-15 89 -21 131 -6 42 -15 82 -19 89 -15 25 -27 -1 -32 -67 -3 -38 -15 -115
-27 -173 -46 -217 -61 -296 -63 -330 l-3 -35 -100 0 -99 0 -12 70 c-6 39 -20
99 -31 135 -31 96 -78 254 -103 345 -22 81 -37 127 -64 200 -8 22 -15 52 -16
68 0 30 13 34 70 17z m713 -165 c-6 -17 -25 -15 -31 3 -2 7 5 12 17 12 14 0
19 -5 14 -15z m-723 -271 c0 -8 -4 -12 -10 -9 -5 3 -10 13 -10 21 0 8 5 12 10
9 6 -3 10 -13 10 -21z"/>
<path d="M5814 4948 c-4 -6 -7 -409 -4 -521 0 -15 220 5 257 24 67 34 108 154
97 287 -3 45 -10 85 -15 88 -5 3 -9 14 -9 24 0 10 -15 34 -33 53 -27 29 -41
36 -87 41 -111 11 -201 13 -206 4z m237 -88 c10 -6 19 -21 19 -34 0 -12 7 -43
16 -68 12 -37 13 -55 5 -85 -6 -21 -11 -51 -11 -68 0 -16 -5 -37 -10 -45 -9
-13 -11 -13 -20 0 -12 19 -43 2 -49 -26 -4 -24 -30 -54 -47 -54 -7 0 -11 6 -8
14 6 15 -23 29 -47 24 -11 -2 -14 25 -12 147 3 194 3 194 53 193 25 0 45 -7
56 -19 21 -23 44 -25 44 -4 0 8 -4 15 -10 15 -5 0 -10 5 -10 10 0 13 6 13 31
0z"/>
<path d="M7758 5151 c-20 -17 -41 -31 -47 -31 -15 0 -81 -134 -81 -165 0 -22
-3 -25 -20 -20 -12 4 -27 2 -34 -5 -15 -11 -10 -50 5 -50 12 0 11 -47 -1 -55
-5 -3 -10 -15 -10 -25 0 -31 -39 -90 -56 -83 -16 6 -20 -32 -4 -42 12 -8 12
-16 0 -35 -8 -13 -11 -13 -19 -1 -5 7 -14 10 -21 6 -8 -5 -9 -26 -5 -70 6 -54
5 -64 -10 -73 -21 -11 -55 -95 -55 -132 0 -15 -5 -31 -12 -38 -15 -15 -11 -18
30 -25 33 -7 34 -6 61 56 16 34 39 94 51 132 12 39 26 75 30 80 4 6 33 87 65
180 31 94 65 189 75 211 11 23 22 54 25 68 3 14 7 37 10 50 6 30 26 38 64 25
18 -7 52 -7 95 -1 l66 9 14 -46 c7 -25 34 -100 59 -166 25 -66 58 -156 73
-200 15 -44 31 -84 35 -89 5 -6 9 -18 9 -29 0 -16 8 -39 50 -142 35 -86 61
-135 69 -135 18 0 12 -28 -6 -34 -28 -8 -198 -5 -213 4 -7 4 -10 17 -7 29 3
12 1 23 -3 26 -5 3 -11 23 -15 45 -4 22 -11 42 -16 46 -5 3 -75 6 -156 6 -170
1 -170 1 -180 -95 -5 -45 -9 -56 -27 -61 -35 -9 -176 -7 -195 4 -13 6 -24 5
-37 -4 -17 -13 -15 -15 17 -31 19 -10 44 -26 56 -38 18 -16 25 -18 38 -7 8 7
22 9 31 6 20 -8 85 11 139 40 34 18 40 26 41 55 0 19 1 40 2 47 2 15 36 16 61
0 15 -9 25 -9 46 0 39 18 85 15 92 -5 8 -24 74 -93 89 -93 6 0 17 -6 23 -14 7
-8 35 -20 64 -26 29 -6 59 -14 68 -16 9 -3 30 6 45 19 41 34 99 43 132 20 24
-16 57 -19 262 -23 129 -3 243 -2 252 3 9 4 29 2 44 -5 24 -11 28 -10 42 10
17 25 48 28 76 7 11 -8 32 -15 46 -15 14 0 31 -5 37 -11 8 -8 13 -8 17 0 4 6
16 11 27 11 34 0 129 60 135 86 4 15 13 24 25 24 10 0 19 4 19 10 0 15 58 42
65 30 3 -6 17 -7 31 -4 13 3 31 1 38 -5 10 -8 16 -9 21 -1 3 5 13 10 21 10 12
0 14 -7 9 -30 -6 -25 -3 -31 19 -41 13 -6 30 -24 36 -39 9 -23 20 -29 63 -37
66 -12 153 -5 168 13 6 8 17 14 24 14 8 0 22 12 33 26 19 27 19 27 -2 68 -11
23 -20 60 -20 84 1 34 -2 42 -17 42 -13 0 -20 10 -24 38 -3 20 -10 44 -14 52
-4 8 -6 31 -3 52 3 29 0 37 -15 40 -14 3 -18 13 -18 48 0 33 -4 45 -15 45 -10
0 -17 17 -23 55 -6 34 -18 64 -32 80 -12 14 -26 43 -30 65 -4 22 -17 60 -30
85 -13 25 -26 54 -30 65 -3 11 -16 32 -28 48 -39 46 -175 58 -259 23 -21 -9
-38 -20 -38 -25 0 -4 -10 -21 -22 -36 -24 -31 -57 -117 -58 -152 0 -12 -7 -34
-14 -50 -57 -109 -86 -178 -86 -198 0 -35 -20 -73 -41 -78 -17 -5 -19 -11 -13
-46 8 -51 -1 -78 -20 -62 -9 7 -17 8 -20 3 -3 -6 1 -12 9 -16 17 -6 20 -32 6
-41 -6 -3 -26 4 -46 15 -20 11 -54 20 -77 20 -27 0 -45 6 -54 18 -12 16 -14
16 -36 -5 -27 -26 -63 -30 -71 -9 -3 8 -27 21 -53 28 -39 11 -49 18 -56 43 -5
17 -7 116 -4 220 6 247 -1 300 -42 343 -39 42 -131 61 -169 37 -31 -21 -29
-31 9 -51 27 -14 37 -15 65 -5 18 7 42 10 53 6 19 -6 35 -38 26 -53 -2 -4 -6
-149 -7 -322 l-2 -315 209 0 209 0 5 -68 c3 -38 1 -72 -4 -75 -13 -8 -605 -9
-618 -1 -7 4 -6 14 1 28 8 14 12 138 12 403 0 211 1 394 2 407 3 35 -21 38
-33 4 -5 -15 -15 -36 -20 -45 -6 -10 -10 -29 -10 -43 0 -14 -4 -25 -10 -25
-11 0 -14 -33 -4 -43 12 -11 8 -397 -4 -409 -15 -15 -41 -3 -51 24 -19 51 -31
96 -31 117 0 17 -4 22 -16 17 -14 -5 -16 -1 -11 29 4 22 1 38 -6 42 -30 19
-77 126 -77 175 0 10 -13 40 -30 66 -16 27 -30 59 -30 70 0 13 -9 23 -22 28
-13 4 -34 15 -48 25 -16 12 -51 21 -96 25 -69 6 -71 6 -106 -25z m1705 -42
c28 6 54 8 58 4 4 -5 24 -57 45 -118 20 -60 40 -114 44 -120 4 -5 11 -26 15
-45 4 -19 11 -39 15 -45 4 -5 28 -71 54 -145 25 -74 53 -148 61 -163 8 -16 15
-36 15 -45 0 -21 36 -90 61 -118 32 -34 8 -44 -107 -44 l-102 0 -21 67 c-12
36 -21 72 -21 80 0 15 11 15 -169 15 l-145 0 -17 -43 c-10 -24 -18 -58 -18
-75 -1 -40 -11 -44 -121 -44 -91 0 -110 9 -85 40 6 8 22 47 34 85 12 39 28 84
35 100 8 17 19 46 25 65 7 19 26 71 43 115 97 258 128 347 128 363 0 8 9 29
20 47 20 32 21 33 61 22 29 -7 55 -7 92 2z"/>
<path d="M9400 4854 c-11 -25 -20 -52 -20 -60 0 -19 -38 -130 -56 -166 -8 -16
-12 -33 -9 -38 3 -5 50 -9 105 -9 113 0 118 5 81 77 -22 45 -47 130 -56 195
-4 26 -11 47 -16 47 -6 0 -19 -21 -29 -46z"/>
<path d="M9714 4929 c-3 -6 -1 -16 5 -22 8 -8 11 -5 11 11 0 24 -5 28 -16 11z"/>
<path d="M8161 4895 c1 -40 1 -40 10 -10 5 18 5 33 -1 39 -7 7 -10 -4 -9 -29z"/>
<path d="M7836 4861 c-9 -16 -16 -39 -16 -49 0 -28 -35 -131 -56 -169 -17 -29
-17 -34 -4 -47 16 -16 166 -26 187 -13 8 5 6 22 -9 60 -11 28 -30 94 -42 146
-12 52 -27 96 -34 99 -6 2 -18 -10 -26 -27z"/>
</g>
</svg>
